<svg
  width="10"
  height="10"
  viewBox="0 0 10 10"
  fill="none"
  xmlns="http://www.w3.org/2000/svg"
>
  <path
    fill-rule="evenodd"
    clip-rule="evenodd"
    d="M5.6524 5.12836L9.62115 1.08149C9.7919 0.895223 9.78428 0.607144 9.60393 0.430165C9.42358 0.253186 9.13541 0.251006 8.9524 0.425235L4.9899 4.46586L0.864901 0.418985C0.746807 0.294941 0.57046 0.245179 0.404942 0.289192C0.239424 0.333206 0.111087 0.463988 0.0702039 0.630307C0.0293208 0.796626 0.082401 0.972002 0.208651 1.08774L4.3274 5.12836L0.208651 9.16899C0.0344216 9.35199 0.0366021 9.64016 0.213581 9.82051C0.39056 10.0009 0.678639 10.0085 0.864901 9.83774L4.9899 5.79086L8.9524 9.83148C9.13541 10.0057 9.42358 10.0035 9.60393 9.82656C9.78428 9.64958 9.7919 9.3615 9.62115 9.17524L5.6524 5.12836Z"
    fill="#25265E"
    fill-opacity="0.67"
  />
</svg>
