<?xml version="1.0" encoding="UTF-8"?>
<svg xmlns="http://www.w3.org/2000/svg" xmlns:xlink="http://www.w3.org/1999/xlink" width="810pt" height="809.999993pt" viewBox="0 0 810 809.999993" version="1.2">
<g id="surface1">
<path style=" stroke:none;fill-rule:nonzero;fill:rgb(36.079407%,55.288696%,73.728943%);fill-opacity:1;" d="M 750.484375 244.875 C 750.484375 231.800781 747.671875 220.25 742.015625 210.335938 C 736.46875 200.585938 728.164062 192.417969 717.015625 185.957031 C 624.949219 132.855469 532.824219 79.917969 440.78125 26.765625 C 415.96875 12.4375 391.917969 12.960938 367.296875 27.492188 C 330.664062 49.109375 147.199219 154.25 92.523438 185.925781 C 70.023438 198.964844 59.066406 218.917969 59.0625 244.851562 C 59.027344 351.648438 59.0625 458.421875 59.027344 565.222656 C 59.03125 578 61.707031 589.3125 67.109375 599.082031 C 72.664062 609.125 81.097656 617.542969 92.503906 624.144531 C 147.171875 655.8125 330.636719 760.933594 367.28125 782.558594 C 391.929688 797.121094 415.980469 797.632812 440.792969 783.289062 C 532.835938 730.132812 624.984375 677.195312 717.054688 624.117188 C 728.472656 617.515625 736.886719 609.097656 742.460938 599.054688 C 747.84375 589.3125 750.523438 577.972656 750.523438 565.167969 C 750.523438 565.167969 750.523438 351.675781 750.496094 244.878906 "/>
<path style=" stroke:none;fill-rule:nonzero;fill:rgb(10.198975%,27.449036%,45.489502%);fill-opacity:1;" d="M 405.824219 403.992188 L 67.117188 599.078125 C 72.664062 609.121094 81.097656 617.539062 92.503906 624.140625 C 147.171875 655.808594 330.636719 760.929688 367.28125 782.554688 C 391.929688 797.117188 415.980469 797.632812 440.792969 783.289062 C 532.835938 730.128906 624.984375 677.191406 717.054688 624.117188 C 728.472656 617.511719 736.886719 609.09375 742.460938 599.054688 L 405.835938 403.992188 "/>
<path style=" stroke:none;fill-rule:nonzero;fill:rgb(10.198975%,27.449036%,45.489502%);fill-opacity:1;" d="M 305.503906 461.777344 C 325.214844 496.203125 362.265625 519.425781 404.769531 519.425781 C 447.542969 519.425781 484.800781 495.90625 504.414062 461.128906 L 405.824219 403.992188 L 305.503906 461.777344 "/>
<path style=" stroke:none;fill-rule:nonzero;fill:rgb(10.5896%,34.899902%,55.688477%);fill-opacity:1;" d="M 750.484375 244.875 C 750.484375 231.800781 747.671875 220.25 742.015625 210.335938 L 405.824219 403.992188 L 742.449219 599.054688 C 747.832031 589.308594 750.511719 577.96875 750.511719 565.167969 C 750.511719 565.167969 750.511719 351.675781 750.484375 244.875 "/>
<path style=" stroke:none;fill-rule:nonzero;fill:rgb(100%,100%,100%);fill-opacity:1;" d="M 731.980469 417.929688 L 705.679688 417.929688 L 705.679688 444.238281 L 679.355469 444.238281 L 679.355469 417.929688 L 653.058594 417.929688 L 653.058594 391.625 L 679.355469 391.625 L 679.355469 365.316406 L 705.679688 365.316406 L 705.679688 391.625 L 731.980469 391.625 L 731.980469 417.929688 "/>
<path style=" stroke:none;fill-rule:nonzero;fill:rgb(100%,100%,100%);fill-opacity:1;" d="M 635.984375 417.929688 L 609.6875 417.929688 L 609.6875 444.238281 L 583.390625 444.238281 L 583.390625 417.929688 L 557.09375 417.929688 L 557.09375 391.625 L 583.390625 391.625 L 583.390625 365.316406 L 609.6875 365.316406 L 609.6875 391.625 L 635.984375 391.625 L 635.984375 417.929688 "/>
<path style=" stroke:none;fill-rule:nonzero;fill:rgb(100%,100%,100%);fill-opacity:1;" d="M 504.414062 461.128906 C 484.800781 495.90625 447.542969 519.425781 404.769531 519.425781 C 362.265625 519.425781 325.214844 496.203125 305.503906 461.777344 C 295.929688 445.050781 290.425781 425.699219 290.425781 405.019531 C 290.425781 341.851562 341.621094 290.640625 404.769531 290.640625 C 447.003906 290.640625 483.851562 313.566406 503.65625 347.640625 L 603.601562 290.074219 C 563.882812 221.464844 489.722656 175.3125 404.769531 175.3125 C 277.945312 175.3125 175.136719 278.164062 175.136719 405.019531 C 175.136719 446.648438 186.207031 485.675781 205.550781 519.34375 C 245.175781 588.308594 319.554688 634.753906 404.769531 634.753906 C 490.15625 634.753906 564.640625 588.117188 604.195312 518.964844 L 504.414062 461.128906 "/>
</g>
</svg>
