<?xml version="1.0" encoding="UTF-8"?>
<svg xmlns="http://www.w3.org/2000/svg" xmlns:xlink="http://www.w3.org/1999/xlink" width="810pt" height="809.999993pt" viewBox="0 0 810 809.999993" version="1.2">
<defs>
<clipPath id="clip1">
  <path d="M 24.847656 24.847656 L 785.347656 24.847656 L 785.347656 785.347656 L 24.847656 785.347656 Z M 24.847656 24.847656 "/>
</clipPath>
</defs>
<g id="surface1">
<g clip-path="url(#clip1)" clip-rule="nonzero">
<path style=" stroke:none;fill-rule:nonzero;fill:rgb(96.859741%,87.449646%,11.759949%);fill-opacity:1;" d="M 24.847656 24.847656 L 785.546875 24.847656 L 785.546875 785.546875 L 24.847656 785.546875 Z M 24.847656 24.847656 "/>
</g>
<path style=" stroke:none;fill-rule:nonzero;fill:rgb(0%,0%,0%);fill-opacity:1;" d="M 224.863281 660.535156 L 283.078125 625.324219 C 294.308594 645.234375 304.523438 662.082031 329.039062 662.082031 C 352.511719 662.082031 367.339844 652.871094 367.339844 617.152344 L 367.339844 374.085938 L 438.804688 374.085938 L 438.804688 618.164062 C 438.804688 692.183594 395.421875 725.910156 332.097656 725.910156 C 274.90625 725.910156 241.710938 696.285156 224.859375 660.535156 "/>
<path style=" stroke:none;fill-rule:nonzero;fill:rgb(0%,0%,0%);fill-opacity:1;" d="M 477.640625 652.871094 L 535.851562 619.175781 C 551.1875 644.195312 571.09375 662.585938 606.308594 662.585938 C 635.933594 662.585938 654.832031 647.789062 654.832031 627.34375 C 654.832031 602.832031 635.429688 594.152344 602.742188 579.859375 L 584.882812 572.195312 C 533.296875 550.234375 499.097656 522.691406 499.097656 464.449219 C 499.097656 410.84375 539.925781 369.984375 603.78125 369.984375 C 649.214844 369.984375 681.902344 385.824219 705.375 427.1875 L 649.71875 462.933594 C 637.476562 440.972656 624.195312 432.296875 603.78125 432.296875 C 582.832031 432.296875 569.550781 445.582031 569.550781 462.933594 C 569.550781 484.386719 582.832031 493.0625 613.46875 506.347656 L 631.328125 513.984375 C 692.09375 540.042969 726.324219 566.578125 726.324219 626.335938 C 726.324219 690.667969 675.78125 725.910156 607.851562 725.910156 C 541.46875 725.910156 498.589844 694.234375 477.640625 652.871094 "/>
</g>
</svg>
