<?xml version="1.0" encoding="UTF-8"?>
<svg xmlns="http://www.w3.org/2000/svg" xmlns:xlink="http://www.w3.org/1999/xlink" width="810pt" height="809.999993pt" viewBox="0 0 810 809.999993" version="1.2">
<defs>
<clipPath id="clip1">
  <path d="M 304 10.875 L 507 10.875 L 507 440 L 304 440 Z M 304 10.875 "/>
</clipPath>
</defs>
<g id="surface1">
<path style=" stroke:none;fill-rule:nonzero;fill:rgb(32.548523%,50.979614%,63.139343%);fill-opacity:1;" d="M 304.339844 615.289062 C 304.339844 615.289062 274.46875 632.671875 325.601562 638.554688 C 387.5625 645.617188 419.203125 644.597656 487.472656 631.675781 C 487.472656 631.675781 505.421875 642.921875 530.5 652.675781 C 377.464844 718.261719 184.140625 648.875 304.339844 615.289062 "/>
<path style=" stroke:none;fill-rule:nonzero;fill:rgb(32.548523%,50.979614%,63.139343%);fill-opacity:1;" d="M 285.640625 529.71875 C 285.640625 529.71875 252.132812 554.523438 303.308594 559.820312 C 369.476562 566.632812 421.738281 567.199219 512.167969 549.773438 C 512.167969 549.773438 524.683594 562.46875 544.355469 569.394531 C 359.3125 623.480469 153.222656 573.671875 285.636719 529.71875 "/>
<path style=" stroke:none;fill-rule:nonzero;fill:rgb(90.589905%,43.528748%,0%);fill-opacity:1;" d="M 443.289062 384.539062 C 481 427.96875 433.375 467.03125 433.375 467.03125 C 433.375 467.03125 529.144531 417.605469 485.164062 355.707031 C 444.082031 297.996094 412.59375 269.324219 583.105469 170.457031 C 583.105469 170.457031 315.46875 237.277344 443.289062 384.539062 "/>
<path style=" stroke:none;fill-rule:nonzero;fill:rgb(32.548523%,50.979614%,63.139343%);fill-opacity:1;" d="M 645.691406 678.589844 C 645.691406 678.589844 667.804688 696.808594 621.359375 710.90625 C 533.011719 737.65625 253.675781 745.738281 176.082031 711.96875 C 148.195312 699.839844 200.503906 683.003906 216.957031 679.449219 C 234.117188 675.738281 243.925781 676.4375 243.925781 676.4375 C 212.90625 654.578125 43.417969 719.324219 157.835938 737.882812 C 469.859375 788.464844 726.632812 715.09375 645.6875 678.589844 "/>
<path style=" stroke:none;fill-rule:nonzero;fill:rgb(32.548523%,50.979614%,63.139343%);fill-opacity:1;" d="M 318.707031 441.050781 C 318.707031 441.050781 176.625 474.792969 268.390625 487.039062 C 307.140625 492.242188 384.390625 491.066406 456.324219 485.023438 C 515.132812 480.066406 574.1875 469.519531 574.1875 469.519531 C 574.1875 469.519531 553.453125 478.414062 538.445312 488.644531 C 394.148438 526.597656 115.421875 508.945312 195.660156 470.132812 C 263.53125 437.339844 318.707031 441.050781 318.707031 441.050781 "/>
<path style=" stroke:none;fill-rule:nonzero;fill:rgb(32.548523%,50.979614%,63.139343%);fill-opacity:1;" d="M 573.597656 583.492188 C 720.273438 507.292969 652.4375 434.058594 605.105469 443.925781 C 593.515625 446.347656 588.332031 448.429688 588.332031 448.429688 C 588.332031 448.429688 592.632812 441.683594 600.875 438.765625 C 694.515625 405.859375 766.539062 535.851562 570.632812 587.339844 C 570.632812 587.339844 572.917969 585.304688 573.597656 583.492188 "/>
<g clip-path="url(#clip1)" clip-rule="nonzero">
<path style=" stroke:none;fill-rule:nonzero;fill:rgb(90.589905%,43.528748%,0%);fill-opacity:1;" d="M 485.164062 10.808594 C 485.164062 10.808594 566.398438 92.054688 408.113281 216.984375 C 281.203125 317.191406 379.1875 374.335938 408.066406 439.625 C 333.980469 372.796875 279.613281 313.953125 316.089844 259.207031 C 369.632812 178.828125 517.9375 139.859375 485.164062 10.808594 "/>
</g>
<path style=" stroke:none;fill-rule:nonzero;fill:rgb(32.548523%,50.979614%,63.139343%);fill-opacity:1;" d="M 333.121094 790.003906 C 473.914062 799.011719 690.097656 785 695.210938 718.398438 C 695.210938 718.398438 685.367188 743.632812 578.867188 763.683594 C 458.699219 786.292969 310.484375 783.667969 222.59375 769.160156 C 222.59375 769.160156 240.585938 784.050781 333.113281 790.003906 "/>
</g>
</svg>
