<?xml version="1.0" encoding="UTF-8"?>
<svg xmlns="http://www.w3.org/2000/svg" xmlns:xlink="http://www.w3.org/1999/xlink" width="810pt" height="809.999993pt" viewBox="0 0 810 809.999993" version="1.2">
<defs>
<clipPath id="clip1">
  <path d="M 16 16.464844 L 569 16.464844 L 569 610 L 16 610 Z M 16 16.464844 "/>
</clipPath>
<clipPath id="clip2">
  <path d="M 241 200 L 794 200 L 794 793.40625 L 241 793.40625 Z M 241 200 "/>
</clipPath>
</defs>
<g id="surface1">
<g clip-path="url(#clip1)" clip-rule="nonzero">
<path style=" stroke:none;fill-rule:nonzero;fill:rgb(0.779724%,46.669006%,74.119568%);fill-opacity:1;" d="M 415.148438 16.464844 C 383.351562 16.566406 361.308594 19.367188 334.664062 23.96875 C 255.976562 37.667969 241.644531 66.433594 241.644531 119.449219 L 241.644531 200.476562 L 425.679688 200.476562 L 425.679688 241.371094 L 145.699219 241.371094 C 91.800781 241.371094 44.625 266.761719 29.675781 327.628906 C 12.785156 397.492188 12.03125 441.246094 29.675781 514.199219 C 43.070312 568.605469 72.578125 609.394531 126.5 609.394531 L 200.769531 609.394531 L 200.769531 505.039062 C 200.769531 444.394531 255.691406 384.488281 318.632812 384.488281 L 466.597656 384.488281 C 518.1875 384.488281 568.835938 346.421875 568.835938 295 L 568.835938 119.449219 C 568.835938 69.582031 532.867188 32.289062 482.585938 23.929688 C 483.835938 23.804688 446.679688 16.34375 415.148438 16.464844 Z M 313.234375 98.25 C 330.023438 98.25 343.90625 112.089844 343.90625 128.957031 C 343.90625 145.988281 330.023438 159.585938 313.234375 159.585938 C 296.117188 159.585938 282.5625 146.011719 282.5625 128.957031 C 282.5625 112.152344 296.117188 98.25 313.234375 98.25 Z M 313.234375 98.25 "/>
</g>
<g clip-path="url(#clip2)" clip-rule="nonzero">
<path style=" stroke:none;fill-rule:nonzero;fill:rgb(100%,75.689697%,2.749634%);fill-opacity:1;" d="M 395.332031 793.40625 C 427.128906 793.304688 449.175781 790.503906 475.816406 785.902344 C 554.503906 772.203125 568.835938 743.4375 568.835938 690.421875 L 568.835938 609.394531 L 384.804688 609.394531 L 384.804688 568.503906 L 664.800781 568.503906 C 718.703125 568.503906 765.878906 543.109375 780.824219 482.242188 C 797.714844 412.378906 798.472656 368.625 780.824219 295.671875 C 767.410156 241.265625 737.902344 200.476562 683.980469 200.476562 L 609.714844 200.476562 L 609.714844 304.832031 C 609.714844 365.476562 554.789062 425.382812 491.851562 425.382812 L 343.886719 425.382812 C 292.292969 425.382812 241.644531 463.453125 241.644531 514.875 L 241.644531 690.421875 C 241.644531 740.289062 277.613281 777.582031 327.894531 785.945312 C 326.648438 786.066406 363.800781 793.527344 395.332031 793.40625 Z M 497.269531 711.625 C 480.480469 711.625 466.597656 697.78125 466.597656 680.914062 C 466.597656 663.882812 480.480469 650.285156 497.269531 650.285156 C 514.382812 650.285156 527.941406 663.863281 527.941406 680.914062 C 527.941406 697.71875 514.363281 711.625 497.269531 711.625 Z M 497.269531 711.625 "/>
</g>
</g>
</svg>
