<svg width="60" height="60" viewBox="0 0 60 60" fill="none" xmlns="http://www.w3.org/2000/svg">
<path d="M24.6887 54.0003V54.0003C32.2185 54.0003 38.4043 48.0538 38.7013 40.5298L38.9446 34.3643C38.9981 33.009 39.3154 31.677 39.8788 30.4432V30.4432C41.5751 26.728 45.2835 24.3445 49.3676 24.3445H57.0002" stroke="url(#paint0_linear_44_129)" stroke-width="11.9508"/>
<path fill-rule="evenodd" clip-rule="evenodd" d="M38.8525 18.1475V0L29.5574 2.46448V18.1475H23.812C12.3178 18.1475 3 27.4654 3 38.9595V40.5842C3 50.9117 11.1593 59.3335 21.3833 59.7549V48.0737C17.3021 47.5755 14.141 44.0981 14.141 39.8824V39.1836C14.141 34.2399 18.1487 30.2322 23.0924 30.2322H29.956C30.256 27.6071 31.5619 24.6715 33.7521 22.1575C35.3965 20.2701 37.2877 18.909 39.1436 18.1475L38.8525 18.1475Z" fill="black"/>
<defs>
<linearGradient id="paint0_linear_44_129" x1="32.8777" y1="27.9345" x2="40.8936" y2="46.8812" gradientUnits="userSpaceOnUse">
<stop stop-color="#09A9B0"/>
<stop offset="1" stop-color="#1280D9"/>
</linearGradient>
</defs>
</svg>
