<svg width="140" height="40" viewBox="0 0 140 40" fill="none" xmlns="http://www.w3.org/2000/svg">
<path d="M10.3689 28.7229C9.52307 28.7229 9.10012 28.3194 9.10012 27.5124V11.0906C9.10012 10.2836 9.52307 9.88013 10.3689 9.88013H14.8171C16.5964 9.88013 18.1326 10.4149 19.4257 11.4844C20.7772 12.6122 21.4529 13.9831 21.4529 15.5971V23.0059C21.4529 23.8226 21.2682 24.5859 20.8987 25.2956C20.5293 26.0054 20.0383 26.6131 19.4257 27.1186C18.1326 28.1881 16.5964 28.7229 14.8171 28.7229H10.3689ZM11.3898 12.1844V26.4332H14.8171C16.0422 26.4332 17.0923 26.0734 17.9673 25.354C18.7646 24.6928 19.1632 23.9101 19.1632 23.0059V15.5971C19.1632 14.7026 18.7646 13.9199 17.9673 13.2491C17.102 12.5393 16.0519 12.1844 14.8171 12.1844H11.3898ZM30.9472 20.337C31.5889 20.337 31.9827 20.0891 32.1286 19.5932C32.1772 19.4182 32.2015 18.8688 32.2015 17.9452C32.2015 17.2938 31.9973 16.8028 31.5889 16.4722C31.1028 16.0735 30.3736 15.8742 29.4013 15.8742C28.4777 15.8742 27.7582 16.0833 27.2429 16.5013C26.8345 16.8319 26.6303 17.3132 26.6303 17.9452V20.337H30.9472ZM24.3406 17.9452C24.3406 16.6132 24.8316 15.5485 25.8136 14.7512C26.747 13.9929 27.9429 13.6137 29.4013 13.6137C30.8986 13.6137 32.1043 13.9831 33.0182 14.7221C33.9905 15.5096 34.4863 16.7104 34.5058 18.3244C34.5447 21.1829 33.412 22.6121 31.1077 22.6121H27.4179C27.029 22.6121 26.7664 22.5489 26.6303 22.4225V24.9748C26.6303 25.5095 26.9074 25.9373 27.4616 26.2582C27.8797 26.511 28.395 26.6665 29.0075 26.7249C29.552 26.7638 30.1062 26.72 30.6701 26.5936C31.0979 26.4964 31.4577 26.3408 31.7494 26.1269C31.8563 26.0491 31.9536 25.9568 32.0411 25.8498C32.4008 25.4512 32.8578 25.388 33.412 25.6602L34.5204 26.1998C34.3162 26.6763 34.0342 27.0992 33.6745 27.4687C33.1592 27.984 32.5077 28.3729 31.7202 28.6354C31.0007 28.8785 30.2521 29 29.4742 29C28.8325 29 28.2394 28.9368 27.695 28.8104C27.0727 28.6646 26.5234 28.4312 26.047 28.1104C25.483 27.7409 25.0552 27.2353 24.7635 26.5936C24.4816 25.9811 24.3406 25.3199 24.3406 24.6102V17.9452ZM36.9122 11.0323C36.9122 10.2253 37.3351 9.82179 38.181 9.82179H39.2019V14.5179C40.1742 13.9151 41.2485 13.6137 42.425 13.6137C43.8737 13.6137 45.1474 14.0609 46.2461 14.9554C47.3739 15.8791 47.9378 17.0215 47.9378 18.3827V24.231C47.9378 25.5922 47.3739 26.7395 46.2461 27.6728C45.1668 28.5576 43.8931 29 42.425 29C40.9471 29 39.6783 28.5576 38.6185 27.6728C37.481 26.7297 36.9122 25.5824 36.9122 24.231V11.0323ZM39.2019 24.231C39.2019 24.8824 39.4936 25.4463 40.0769 25.9227C40.7186 26.4575 41.5013 26.7249 42.425 26.7249C43.3487 26.7249 44.1362 26.4575 44.7876 25.9227C45.3613 25.4463 45.6481 24.8824 45.6481 24.231V18.3827C45.6481 17.7313 45.3613 17.1722 44.7876 16.7055C44.1362 16.1708 43.3487 15.9034 42.425 15.9034C41.5013 15.9034 40.7186 16.1708 40.0769 16.7055C39.4936 17.1722 39.2019 17.7313 39.2019 18.3827V24.231ZM50.7088 15.1596C50.7088 14.3526 51.1318 13.9491 51.9776 13.9491H52.9985V24.4351C52.9985 25.0282 53.2611 25.5435 53.7861 25.9811C54.3889 26.4769 55.1181 26.7249 55.9737 26.7249C56.8196 26.7249 57.5488 26.4769 58.1613 25.9811C58.6864 25.5533 58.9489 25.038 58.9489 24.4351V15.1596C58.9489 14.3526 59.3718 13.9491 60.2177 13.9491H61.2532V24.4351C61.2532 25.7283 60.7087 26.8318 59.6198 27.7458C58.6183 28.5819 57.403 29 55.9737 29C54.5639 29 53.3534 28.5819 52.3422 27.7458C51.2533 26.8415 50.7088 25.738 50.7088 24.4351V15.1596ZM69.5516 13.672C71.01 13.672 72.2837 14.1193 73.3727 15.0138C74.5005 15.9471 75.0644 17.0944 75.0644 18.4556V28.6208C75.0644 29.3306 74.9234 29.9674 74.6415 30.5313C74.3595 31.105 73.956 31.5765 73.431 31.946C72.8962 32.3252 72.3372 32.6023 71.7538 32.7773C70.3926 33.1759 68.9974 33.2002 67.5681 32.8502C66.7709 32.646 66.0951 32.3155 65.5409 31.8585C65.3951 31.7321 65.2687 31.6106 65.1618 31.4939L66.3431 30.5313C66.6834 30.2494 67.0626 30.2153 67.4806 30.4293C68.4626 30.9348 69.678 30.9883 71.1267 30.5897C72.2254 30.2785 72.7747 29.6223 72.7747 28.6208V28.1833C71.8219 28.7861 70.7475 29.0875 69.5516 29.0875C68.0737 29.0875 66.8 28.6403 65.7305 27.7458C64.6027 26.8124 64.0388 25.6699 64.0388 24.3185V18.4556C64.0388 17.1042 64.6027 15.9569 65.7305 15.0138C66.8098 14.1193 68.0835 13.672 69.5516 13.672ZM71.9142 16.7639C71.2628 16.2291 70.4753 15.9617 69.5516 15.9617C68.6279 15.9617 67.8452 16.2291 67.2035 16.7639C66.6202 17.25 66.3285 17.8139 66.3285 18.4556V24.3185C66.3285 24.9602 66.6202 25.5192 67.2035 25.9957C67.8452 26.5304 68.6279 26.7978 69.5516 26.7978C70.4753 26.7978 71.2628 26.5304 71.9142 25.9957C72.4879 25.529 72.7747 24.9699 72.7747 24.3185V18.4556C72.7747 17.8139 72.4879 17.25 71.9142 16.7639Z" fill="white"/>
<path fill-rule="evenodd" clip-rule="evenodd" d="M116.246 29.4804L113.735 26.7095V12.696C113.735 11.9529 113.717 11.2416 113.679 10.5621C113.642 9.98883 113.586 9.41555 113.512 8.84227C113.438 8.26899 113.335 7.81249 113.205 7.47277C113.131 7.3029 113.056 7.16489 112.982 7.05873C112.926 6.95257 112.87 6.85702 112.815 6.77209C112.74 6.68716 112.684 6.60223 112.647 6.5173L112.843 6.07141C113.121 6.19881 113.419 6.36867 113.735 6.58099C113.996 6.77209 114.274 7.01626 114.572 7.31352C114.87 7.61078 115.149 8.00358 115.409 8.49193C115.706 9.10768 115.911 9.74466 116.023 10.4029C116.153 11.0399 116.227 11.8042 116.246 12.696V29.4804ZM106.919 16.6134C107.365 16.7621 107.793 16.9638 108.202 17.2186C108.611 17.4521 108.965 17.7281 109.262 18.0466C109.578 18.3439 109.82 18.673 109.988 19.0339C110.174 19.3949 110.267 19.7559 110.267 20.1168V29.5123L108.035 27.5376C107.7 27.9198 107.263 28.2701 106.724 28.5886C106.184 28.9071 105.599 29.1619 104.966 29.353C104.334 29.5229 103.674 29.6184 102.986 29.6397C102.316 29.6609 101.675 29.576 101.061 29.3849C100.447 29.1938 99.8893 28.8859 99.3872 28.4612C98.8851 28.0366 98.4945 27.4739 98.2156 26.7732C97.8994 26.0301 97.7971 25.287 97.9087 24.5438C98.0389 23.8007 98.3086 23.1318 98.7177 22.5373C99.1454 21.9216 99.694 21.4226 100.364 21.0404C101.052 20.637 101.796 20.4141 102.595 20.3716C103.413 20.3079 104.26 20.4565 105.134 20.8175C106.026 21.1572 106.9 21.7623 107.756 22.6329V20.1487C107.756 19.5329 107.458 19.0658 106.863 18.7473C106.287 18.4076 105.58 18.3227 104.743 18.4925C104.148 18.5987 103.674 18.6942 103.32 18.7792C102.967 18.8641 102.632 18.9702 102.316 19.0976C102 19.2038 101.656 19.3418 101.284 19.5117C100.912 19.6815 100.41 19.9045 99.7777 20.1805L99.164 18.5881C99.7963 18.2908 100.419 18.0042 101.033 17.7281C101.572 17.4946 102.14 17.261 102.735 17.0275C103.348 16.7939 103.906 16.6134 104.408 16.486C104.446 16.4648 104.483 16.4542 104.52 16.4542C104.576 16.4542 104.622 16.4436 104.659 16.4223V16.2296H96.7936L96.7936 16.2304H94.5974V29.1824H91.9681V16.2304H89.0264L89.0062 16.2611C89.2816 16.6158 89.4898 17.0352 89.6308 17.5195C89.7786 17.9969 89.8525 18.4778 89.8525 18.962C89.8525 19.4599 89.7752 19.9476 89.6207 20.425C89.4663 20.8956 89.248 21.3458 88.9659 21.7754C88.6838 22.2051 88.3447 22.6075 87.9484 22.9827C87.5522 23.351 87.1123 23.6783 86.6287 23.9648V24.016C86.9443 24.2206 87.2802 24.4832 87.6361 24.8037C87.9921 25.1243 88.3447 25.4721 88.6939 25.8472C89.0432 26.2155 89.379 26.6009 89.7013 27.0033C90.0237 27.3989 90.3159 27.7774 90.5778 28.1389L88.7241 29.6428C88.4756 29.3086 88.1868 28.9403 87.8578 28.5379C87.5287 28.1355 87.1727 27.7297 86.7899 27.3205C86.4138 26.9112 86.0142 26.5156 85.591 26.1337C85.1746 25.7449 84.7515 25.3971 84.3217 25.0902C83.7844 25.2948 83.2404 25.3971 82.6896 25.3971C82.2665 25.3971 81.8938 25.3391 81.5714 25.2232C81.249 25.1004 80.977 24.9435 80.7554 24.7526C80.5405 24.5616 80.3759 24.3467 80.2617 24.108C80.1543 23.8693 80.1006 23.6306 80.1006 23.3919C80.1006 23.1805 80.1442 22.9793 80.2315 22.7883C80.3188 22.5905 80.4464 22.4166 80.6143 22.2665C80.789 22.1165 81.0072 21.9971 81.2692 21.9084C81.5311 21.813 81.8367 21.7652 82.1859 21.7652C82.5889 21.7652 82.9986 21.8266 83.415 21.9494C83.8381 22.0721 84.231 22.2461 84.5937 22.4711C84.6676 22.4507 84.7817 22.4063 84.9362 22.3381C85.0974 22.2631 85.2754 22.1608 85.4701 22.0312C85.6716 21.9016 85.8765 21.7448 86.0847 21.5606C86.2929 21.3696 86.4843 21.148 86.6589 20.8956C86.8335 20.6433 86.9746 20.3568 87.082 20.0362C87.1962 19.7157 87.2533 19.3576 87.2533 18.962C87.2533 18.6142 87.2063 18.28 87.1123 17.9594C87.0182 17.6388 86.8772 17.3558 86.6891 17.1103C86.5078 16.8647 86.2828 16.6703 86.0142 16.5271C85.7455 16.3771 85.4399 16.302 85.0974 16.302C84.8422 16.302 84.6273 16.3396 84.4526 16.4146C84.2847 16.4896 84.1471 16.5885 84.0396 16.7113C83.9389 16.834 83.865 16.9704 83.818 17.1205C83.7777 17.2705 83.7575 17.4206 83.7575 17.5706C83.7575 18.0003 83.9053 18.3311 84.2008 18.563C84.503 18.7881 84.9362 18.9006 85.5004 18.9006V21.2128C85.4466 21.2196 85.3996 21.223 85.3593 21.223H85.2989C84.6541 21.223 84.0732 21.1309 83.556 20.9468C83.0389 20.7626 82.599 20.5137 82.2363 20.1999C81.8803 19.8794 81.605 19.5076 81.4102 19.0848C81.2154 18.6619 81.1181 18.2084 81.1181 17.7241C81.1181 17.2467 81.2188 16.7556 81.4203 16.2509L81.4001 16.2304H78.5793V13.9285H96.7936H110.911L111.794 16.2296H106.919V16.6134ZM107.756 24.5438C107.031 23.9068 106.268 23.4397 105.468 23.1425C104.669 22.824 103.925 22.6753 103.237 22.6966C102.549 22.7178 101.954 22.9089 101.451 23.2699C100.949 23.6096 100.633 24.1192 100.503 24.7986C100.354 25.5418 100.391 26.1257 100.615 26.5503C100.838 26.975 101.163 27.2722 101.591 27.4421C102.037 27.6119 102.549 27.6756 103.125 27.6332C103.72 27.5907 104.306 27.4739 104.883 27.2828C105.478 27.0917 106.026 26.8582 106.528 26.5822C107.049 26.3061 107.458 26.0195 107.756 25.7222V24.5438ZM129.015 17.2186C128.606 16.9638 128.178 16.7621 127.732 16.6134V16.2296H133.222V13.9285H118.222L119.294 16.2296H125.472V16.4223C125.435 16.4436 125.389 16.4542 125.333 16.4542C125.296 16.4542 125.258 16.4648 125.221 16.486C124.719 16.6134 124.161 16.7939 123.547 17.0275C122.952 17.261 122.385 17.4946 121.846 17.7281C121.232 18.0042 120.609 18.2908 119.977 18.5881L120.591 20.1805C121.223 19.9045 121.725 19.6815 122.097 19.5117C122.469 19.3418 122.813 19.2038 123.129 19.0976C123.445 18.9702 123.78 18.8641 124.133 18.7792C124.487 18.6942 124.961 18.5987 125.556 18.4925C126.393 18.3227 127.1 18.4076 127.676 18.7473C128.271 19.0658 128.569 19.5329 128.569 20.1487V22.6329C127.713 21.7623 126.839 21.1572 125.947 20.8175C125.072 20.4565 124.226 20.3079 123.408 20.3716C122.608 20.4141 121.864 20.637 121.176 21.0404C120.507 21.4226 119.958 21.9216 119.531 22.5373C119.121 23.1318 118.852 23.8007 118.722 24.5438C118.61 25.287 118.712 26.0301 119.028 26.7732C119.307 27.4739 119.698 28.0366 120.2 28.4612C120.702 28.8859 121.26 29.1938 121.874 29.3849C122.487 29.576 123.129 29.6609 123.799 29.6397C124.487 29.6184 125.147 29.5229 125.779 29.353C126.411 29.1619 126.997 28.9071 127.537 28.5886C128.076 28.2701 128.513 27.9198 128.848 27.5376L131.079 29.5123V20.1168C131.079 19.7559 130.986 19.3949 130.8 19.0339C130.633 18.673 130.391 18.3439 130.075 18.0466C129.778 17.7281 129.424 17.4521 129.015 17.2186ZM117.078 12.696V12.7574L117.048 12.696H117.078ZM126.281 23.1425C127.081 23.4397 127.843 23.9068 128.569 24.5438V25.7222C128.271 26.0195 127.862 26.3061 127.341 26.5822C126.839 26.8582 126.291 27.0917 125.695 27.2828C125.119 27.4739 124.533 27.5907 123.938 27.6332C123.362 27.6756 122.85 27.6119 122.404 27.4421C121.976 27.2722 121.651 26.975 121.427 26.5503C121.204 26.1257 121.167 25.5418 121.316 24.7986C121.446 24.1192 121.762 23.6096 122.264 23.2699C122.766 22.9089 123.362 22.7178 124.05 22.6966C124.738 22.6753 125.482 22.824 126.281 23.1425Z" fill="url(#paint0_linear_44_205)"/>
<defs>
<linearGradient id="paint0_linear_44_205" x1="78.5793" y1="15.051" x2="133.52" y2="28.4189" gradientUnits="userSpaceOnUse">
<stop stop-color="#09A9B0"/>
<stop offset="1" stop-color="#1766F2"/>
</linearGradient>
</defs>
</svg>
