<svg width="16" height="16" viewBox="0 0 16 16" fill="none" xmlns="http://www.w3.org/2000/svg">
<path d="M6.80762 14.4591V14.4591C8.8238 14.4591 10.4801 12.8669 10.5596 10.8523L10.6248 9.20138C10.6391 8.83848 10.7241 8.48185 10.8749 8.15147V8.15147C11.3291 7.15669 12.3221 6.51849 13.4156 6.51849H15.4593" stroke="url(#paint0_linear_44_128)" stroke-width="2.87705"/>
<path fill-rule="evenodd" clip-rule="evenodd" d="M10.6002 4.85919V0L8.11133 0.65989V4.85919H10.6002ZM10.6778 4.85925H6.57262C3.49495 4.85925 1 7.3542 1 10.4319V10.8669C1 13.6323 3.18496 15.8874 5.92272 16.0001V12.8722C4.8298 12.7389 3.98324 11.8078 3.98324 10.6789V10.4917C3.98324 9.16801 5.05633 8.09492 6.38006 8.09492H8.21806C8.2984 7.39203 8.64805 6.60601 9.2345 5.93286C9.67471 5.42757 10.181 5.06317 10.6778 4.85925Z" fill="black"/>
<defs>
<linearGradient id="paint0_linear_44_128" x1="9.00029" y1="7.47975" x2="11.1466" y2="12.5529" gradientUnits="userSpaceOnUse">
<stop stop-color="#09A9B0"/>
<stop offset="1" stop-color="#1280D9"/>
</linearGradient>
</defs>
</svg>
