<svg width="140" height="40" viewBox="0 0 140 40" fill="none" xmlns="http://www.w3.org/2000/svg">
<path fill-rule="evenodd" clip-rule="evenodd" d="M11.0702 16.3313H15.5419C15.0006 16.5534 14.449 16.9504 13.9694 17.5009C13.3306 18.2341 12.9497 19.0903 12.8622 19.8559H10.8603C9.41838 19.8559 8.24947 21.0248 8.24947 22.4667V22.6706C8.24947 23.9001 9.17145 24.9144 10.3618 25.0597V28.4668C7.3798 28.3439 5 25.8875 5 22.8754V22.4015C5 19.049 7.71771 16.3313 11.0702 16.3313Z" fill="white"/>
<path d="M11.3259 26.7883V26.7883C13.522 26.7883 15.3263 25.0539 15.4129 22.8594L15.4838 21.0611C15.4994 20.6658 15.592 20.2773 15.7563 19.9174V19.9174C16.251 18.8339 17.3327 18.1387 18.5239 18.1387H20.7501" stroke="#09A9B0" stroke-width="3.48566"/>
<path d="M15.457 11.0382V16.3313H12.7459V11.757L15.457 11.0382Z" fill="white"/>
<path d="M25.3369 28.7414C24.5474 28.7414 24.1527 28.3648 24.1527 27.6116V12.2846C24.1527 11.5314 24.5474 11.1548 25.3369 11.1548H29.4885C31.1492 11.1548 32.583 11.6539 33.7899 12.6521C35.0513 13.7047 35.6819 14.9843 35.6819 16.4907V23.4055C35.6819 24.1678 35.5095 24.8801 35.1647 25.5426C34.8199 26.205 34.3616 26.7722 33.7899 27.2441C32.583 28.2423 31.1492 28.7414 29.4885 28.7414H25.3369ZM26.2897 13.3055V26.6043H29.4885C30.6319 26.6043 31.612 26.2685 32.4287 25.597C33.1728 24.9799 33.5449 24.2494 33.5449 23.4055V16.4907C33.5449 15.6558 33.1728 14.9253 32.4287 14.2991C31.6211 13.6367 30.641 13.3055 29.4885 13.3055H26.2897ZM44.5433 20.9145C45.1422 20.9145 45.5097 20.6831 45.6459 20.2203C45.6912 20.057 45.7139 19.5443 45.7139 18.6822C45.7139 18.0742 45.5234 17.6159 45.1422 17.3074C44.6885 16.9353 44.0079 16.7493 43.1004 16.7493C42.2383 16.7493 41.5668 16.9444 41.0859 17.3346C40.7047 17.6431 40.5142 18.0923 40.5142 18.6822V20.9145H44.5433ZM38.3771 18.6822C38.3771 17.4389 38.8354 16.4453 39.7519 15.7012C40.6231 14.9933 41.7392 14.6394 43.1004 14.6394C44.4979 14.6394 45.6232 14.9843 46.4762 15.6739C47.3836 16.409 47.8465 17.5297 47.8646 19.0361C47.9009 21.704 46.8437 23.038 44.693 23.038H41.2492C40.8862 23.038 40.6412 22.979 40.5142 22.861V25.2431C40.5142 25.7422 40.7728 26.1415 41.29 26.441C41.6803 26.6769 42.1612 26.8221 42.7329 26.8765C43.2411 26.9128 43.7583 26.872 44.2847 26.754C44.684 26.6633 45.0197 26.5181 45.2919 26.3185C45.3918 26.2459 45.4825 26.1596 45.5642 26.0598C45.8999 25.6878 46.3265 25.6288 46.8437 25.8829L47.8782 26.3865C47.6876 26.8312 47.4245 27.2259 47.0887 27.5707C46.6078 28.0517 45.9998 28.4147 45.2647 28.6597C44.5932 28.8866 43.8945 29 43.1685 29C42.5696 29 42.016 28.941 41.5078 28.823C40.9271 28.6869 40.4143 28.4691 39.9697 28.1697C39.4434 27.8248 39.0441 27.353 38.7718 26.754C38.5087 26.1823 38.3771 25.5653 38.3771 24.9028V18.6822ZM50.1106 12.2301C50.1106 11.4769 50.5053 11.1003 51.2948 11.1003H52.2476V15.4834C53.1551 14.9207 54.1578 14.6394 55.2559 14.6394C56.608 14.6394 57.7968 15.0569 58.8222 15.8917C59.8748 16.7538 60.4012 17.8201 60.4012 19.0905V24.5489C60.4012 25.8193 59.8748 26.8902 58.8222 27.7613C57.8149 28.5871 56.6261 29 55.2559 29C53.8765 29 52.6923 28.5871 51.7032 27.7613C50.6414 26.8811 50.1106 25.8103 50.1106 24.5489V12.2301ZM52.2476 24.5489C52.2476 25.1569 52.5199 25.6832 53.0644 26.1279C53.6633 26.627 54.3938 26.8765 55.2559 26.8765C56.118 26.8765 56.853 26.627 57.461 26.1279C57.9964 25.6832 58.2641 25.1569 58.2641 24.5489V19.0905C58.2641 18.4825 57.9964 17.9607 57.461 17.5252C56.853 17.0261 56.118 16.7765 55.2559 16.7765C54.3938 16.7765 53.6633 17.0261 53.0644 17.5252C52.5199 17.9607 52.2476 18.4825 52.2476 19.0905V24.5489ZM62.9874 16.0823C62.9874 15.3291 63.3822 14.9525 64.1717 14.9525H65.1245V24.7395C65.1245 25.293 65.3695 25.774 65.8595 26.1823C66.4222 26.6451 67.1028 26.8765 67.9013 26.8765C68.6908 26.8765 69.3714 26.6451 69.9431 26.1823C70.4331 25.7831 70.6782 25.3021 70.6782 24.7395V16.0823C70.6782 15.3291 71.0729 14.9525 71.8624 14.9525H72.8288V24.7395C72.8288 25.9464 72.3207 26.9764 71.3043 27.8294C70.3696 28.6098 69.2353 29 67.9013 29C66.5855 29 65.4557 28.6098 64.512 27.8294C63.4956 26.9854 62.9874 25.9555 62.9874 24.7395V16.0823ZM80.574 14.6939C81.9352 14.6939 83.124 15.1113 84.1403 15.9462C85.193 16.8173 85.7193 17.8881 85.7193 19.1586V28.6461C85.7193 29.3085 85.5877 29.9029 85.3246 30.4293C85.0614 30.9647 84.6848 31.4048 84.1948 31.7496C83.6957 32.1035 83.1739 32.3621 82.6294 32.5255C81.359 32.8975 80.0568 32.9202 78.7228 32.5935C77.9787 32.403 77.348 32.0944 76.8307 31.6679C76.6946 31.55 76.5767 31.4365 76.4768 31.3276L77.5794 30.4293C77.897 30.1661 78.2509 30.1343 78.6411 30.334C79.5577 30.8058 80.692 30.8558 82.0441 30.4837C83.0695 30.1933 83.5823 29.5808 83.5823 28.6461V28.2377C82.6929 28.8004 81.6902 29.0817 80.574 29.0817C79.1947 29.0817 78.0059 28.6642 77.0077 27.8294C75.955 26.9582 75.4287 25.8919 75.4287 24.6306V19.1586C75.4287 17.8972 75.955 16.8264 77.0077 15.9462C78.015 15.1113 79.2038 14.6939 80.574 14.6939ZM82.7792 17.5796C82.1712 17.0805 81.4361 16.831 80.574 16.831C79.7119 16.831 78.9814 17.0805 78.3825 17.5796C77.838 18.0333 77.5658 18.5597 77.5658 19.1586V24.6306C77.5658 25.2295 77.838 25.7513 78.3825 26.1959C78.9814 26.695 79.7119 26.9446 80.574 26.9446C81.4361 26.9446 82.1712 26.695 82.7792 26.1959C83.3146 25.7604 83.5823 25.2386 83.5823 24.6306V19.1586C83.5823 18.5597 83.3146 18.0333 82.7792 17.5796Z" fill="white"/>
<path fill-rule="evenodd" clip-rule="evenodd" d="M120.662 28.5986L118.494 26.3081V14.7238C118.494 14.1095 118.478 13.5215 118.446 12.9598C118.414 12.4859 118.366 12.012 118.302 11.5381C118.237 11.0642 118.149 10.6868 118.037 10.406C117.972 10.2656 117.908 10.1515 117.844 10.0637C117.796 9.97597 117.747 9.89698 117.699 9.82677C117.635 9.75657 117.587 9.68636 117.555 9.61615L117.723 9.24756C117.964 9.35287 118.221 9.49329 118.494 9.66881C118.719 9.82677 118.96 10.0286 119.217 10.2744C119.474 10.5201 119.715 10.8448 119.94 11.2485C120.197 11.7575 120.373 12.2841 120.47 12.8282C120.582 13.3547 120.646 13.9866 120.662 14.7238V28.5986ZM112.608 17.9621C112.993 18.085 113.363 18.2517 113.716 18.4624C114.069 18.6554 114.375 18.8836 114.632 19.1469C114.905 19.3926 115.113 19.6647 115.258 19.9631C115.419 20.2614 115.499 20.5598 115.499 20.8582V28.625L113.572 26.9926C113.283 27.3086 112.905 27.5982 112.439 27.8615C111.974 28.1247 111.468 28.3354 110.922 28.4933C110.376 28.6338 109.806 28.7127 109.211 28.7303C108.633 28.7478 108.079 28.6776 107.549 28.5197C107.019 28.3617 106.537 28.1072 106.104 27.7562C105.67 27.4051 105.333 26.94 105.092 26.3608C104.819 25.7464 104.731 25.1321 104.827 24.5178C104.939 23.9035 105.172 23.3506 105.526 22.8591C105.895 22.3501 106.369 21.9377 106.947 21.6217C107.541 21.2882 108.183 21.1039 108.874 21.0688C109.581 21.0162 110.311 21.139 111.066 21.4374C111.837 21.7183 112.592 22.2185 113.331 22.9381V20.8845C113.331 20.3755 113.074 19.9894 112.56 19.7261C112.062 19.4453 111.452 19.3751 110.729 19.5155C110.215 19.6032 109.806 19.6822 109.5 19.7524C109.195 19.8226 108.906 19.9104 108.633 20.0157C108.36 20.1035 108.063 20.2176 107.742 20.358C107.421 20.4984 106.987 20.6827 106.441 20.9109L105.911 19.5945C106.457 19.3487 106.995 19.1118 107.525 18.8836C107.991 18.6905 108.481 18.4975 108.995 18.3044C109.524 18.1113 110.006 17.9621 110.44 17.8568C110.472 17.8393 110.504 17.8305 110.536 17.8305C110.584 17.8305 110.625 17.8217 110.657 17.8042V17.0406H104.586L104.42 16.7216H102.67V28.3206H100.264V16.7216H97.5715L97.5531 16.7491C97.8051 17.0667 97.9957 17.4423 98.1247 17.876C98.26 18.3036 98.3276 18.7342 98.3276 19.1678C98.3276 19.6137 98.2569 20.0504 98.1155 20.478C97.9741 20.8994 97.7744 21.3026 97.5162 21.6874C97.258 22.0722 96.9476 22.4325 96.5849 22.7685C96.2222 23.0983 95.8196 23.3915 95.377 23.648V23.6938C95.6659 23.8771 95.9733 24.1122 96.2991 24.3993C96.6249 24.6864 96.9476 24.9979 97.2672 25.3338C97.5869 25.6637 97.8942 26.0088 98.1893 26.3691C98.4843 26.7234 98.7517 27.0624 98.9915 27.3861L97.2949 28.7329C97.0674 28.4336 96.8031 28.1038 96.5019 27.7434C96.2007 27.383 95.8749 27.0196 95.5245 26.6531C95.1803 26.2867 94.8146 25.9324 94.4273 25.5904C94.0462 25.2422 93.6589 24.9307 93.2655 24.6558C92.7737 24.8391 92.2758 24.9307 91.7718 24.9307C91.3845 24.9307 91.0433 24.8788 90.7483 24.7749C90.4532 24.665 90.2043 24.5245 90.0014 24.3535C89.8047 24.1825 89.6541 23.9901 89.5496 23.7763C89.4512 23.5625 89.4021 23.3487 89.4021 23.135C89.4021 22.9456 89.442 22.7654 89.5219 22.5944C89.6019 22.4173 89.7186 22.2615 89.8723 22.1271C90.0321 21.9928 90.2319 21.8859 90.4717 21.8065C90.7114 21.721 90.9911 21.6782 91.3107 21.6782C91.6796 21.6782 92.0545 21.7332 92.4356 21.8431C92.8229 21.9531 93.1825 22.1088 93.5145 22.3104C93.5821 22.2921 93.6866 22.2524 93.828 22.1913C93.9755 22.1241 94.1384 22.0325 94.3166 21.9164C94.5011 21.8004 94.6885 21.6599 94.8791 21.495C95.0697 21.3239 95.2448 21.1254 95.4047 20.8994C95.5645 20.6734 95.6936 20.4169 95.7919 20.1298C95.8964 19.8428 95.9487 19.5221 95.9487 19.1678C95.9487 18.8563 95.9057 18.557 95.8196 18.27C95.7335 17.9829 95.6045 17.7294 95.4323 17.5095C95.2664 17.2896 95.0604 17.1156 94.8146 16.9873C94.5687 16.8529 94.289 16.7857 93.9755 16.7857C93.7419 16.7857 93.5452 16.8193 93.3854 16.8865C93.2317 16.9537 93.1057 17.0423 93.0073 17.1522C92.9151 17.2621 92.8475 17.3843 92.8045 17.5187C92.7676 17.6531 92.7491 17.7874 92.7491 17.9218C92.7491 18.3066 92.8844 18.6028 93.1548 18.8105C93.4315 19.0121 93.828 19.1129 94.3443 19.1129V21.1835C94.2951 21.1896 94.2521 21.1926 94.2152 21.1926H94.1599C93.5698 21.1926 93.0381 21.1102 92.5647 20.9452C92.0914 20.7803 91.6888 20.5574 91.3568 20.2764C91.031 19.9894 90.779 19.6565 90.6007 19.2778C90.4225 18.8991 90.3334 18.4929 90.3334 18.0592C90.3334 17.6317 90.4256 17.1919 90.61 16.7399L90.5915 16.7216H88.0098V14.6602H104.681V14.7238H116.679L117.884 17.0406H112.608V17.9621ZM113.331 24.5178C112.704 23.9912 112.046 23.6051 111.355 23.3594C110.665 23.0961 110.022 22.9732 109.428 22.9908C108.834 23.0083 108.32 23.1663 107.886 23.4647C107.453 23.7455 107.18 24.1668 107.067 24.7284C106.939 25.3427 106.971 25.8254 107.164 26.1765C107.356 26.5275 107.637 26.7732 108.007 26.9137C108.392 27.0541 108.834 27.1067 109.332 27.0716C109.846 27.0365 110.352 26.94 110.849 26.782C111.363 26.624 111.837 26.431 112.271 26.2028C112.72 25.9746 113.074 25.7377 113.331 25.4919V24.5178ZM131.69 18.4624C131.336 18.2517 130.967 18.085 130.581 17.9621V17.0406H135.857L134.653 14.7238H121.355L122.559 17.0406H128.63V17.8042C128.598 17.8217 128.558 17.8305 128.51 17.8305C128.478 17.8305 128.445 17.8393 128.413 17.8568C127.98 17.9621 127.498 18.1113 126.968 18.3044C126.454 18.4975 125.964 18.6905 125.498 18.8836C124.968 19.1118 124.43 19.3487 123.884 19.5945L124.414 20.9109C124.96 20.6827 125.394 20.4984 125.715 20.358C126.036 20.2176 126.334 20.1035 126.607 20.0157C126.88 19.9104 127.169 19.8226 127.474 19.7524C127.779 19.6822 128.188 19.6032 128.702 19.5155C129.425 19.3751 130.035 19.4453 130.533 19.7261C131.047 19.9894 131.304 20.3755 131.304 20.8845V22.9381C130.565 22.2185 129.811 21.7183 129.04 21.4374C128.285 21.139 127.554 21.0162 126.847 21.0688C126.157 21.1039 125.514 21.2882 124.92 21.6217C124.342 21.9377 123.868 22.3501 123.499 22.8591C123.146 23.3506 122.913 23.9035 122.8 24.5178C122.704 25.1321 122.792 25.7464 123.065 26.3608C123.306 26.94 123.644 27.4051 124.077 27.7562C124.511 28.1072 124.993 28.3617 125.523 28.5197C126.053 28.6776 126.607 28.7478 127.185 28.7303C127.779 28.7127 128.349 28.6338 128.895 28.4933C129.441 28.3354 129.947 28.1247 130.413 27.8615C130.879 27.5982 131.256 27.3086 131.545 26.9926L133.472 28.625V20.8582C133.472 20.5598 133.392 20.2614 133.231 19.9631C133.087 19.6647 132.878 19.3926 132.605 19.1469C132.348 18.8836 132.043 18.6554 131.69 18.4624ZM129.329 23.3594C130.019 23.6051 130.678 23.9912 131.304 24.5178V25.4919C131.047 25.7377 130.694 25.9746 130.244 26.2028C129.811 26.431 129.337 26.624 128.823 26.782C128.325 26.94 127.819 27.0365 127.305 27.0716C126.807 27.1067 126.366 27.0541 125.98 26.9137C125.611 26.7732 125.33 26.5275 125.137 26.1765C124.944 25.8254 124.912 25.3427 125.041 24.7284C125.153 24.1668 125.426 23.7455 125.86 23.4647C126.293 23.1663 126.807 23.0083 127.402 22.9908C127.996 22.9732 128.638 23.0961 129.329 23.3594Z" fill="#09A9B0"/>
</svg>
